<svg id="Vrstva_1" data-name="Vrstva 1" xmlns="http://www.w3.org/2000/svg" viewBox="0 0 347.33 395.74"><defs><style>.cls-1{fill:#cfd1d1;}.cls-1,.cls-3,.cls-4,.cls-5,.cls-6,.cls-7,.cls-8{stroke:#000;stroke-miterlimit:10;}.cls-2,.cls-8{fill:#6ac8e2;}.cls-3{fill:none;}.cls-4{fill:#fff;}.cls-5{fill:#f9e41c;}.cls-6{fill:#ea0f0f;}.cls-7{fill:#3f3d3f;}</style></defs><rect class="cls-1" x="0.5" y="0.5" width="346.32" height="394.74"/><path class="cls-2" d="M623.61,343.92a364.29,364.29,0,0,1-120,36.84,378,378,0,0,1-89.48,0,395.13,395.13,0,0,1-132.59-40.2" transform="translate(-278.91 -101.81)"/><path d="M622.85,342.62a364.48,364.48,0,0,1-55.44,22.68,357,357,0,0,1-69.28,14.59,371.94,371.94,0,0,1-61,1.36,386.91,386.91,0,0,1-82.62-13.81,399.49,399.49,0,0,1-65.47-24.83c-2.26-1.09-4.52-2.21-6.76-3.34-1.72-.87-3.24,1.72-1.51,2.59a406.89,406.89,0,0,0,63.6,25.72,391.15,391.15,0,0,0,81.69,15.89,379.81,379.81,0,0,0,67.36-.11,357.31,357.31,0,0,0,66.19-12.58A367.87,367.87,0,0,0,618.77,348q2.81-1.37,5.6-2.79c1.72-.87.2-3.46-1.52-2.59Z" transform="translate(-278.91 -101.81)"/><path class="cls-3" d="M452.6,371.79" transform="translate(-278.91 -101.81)"/><path class="cls-4" d="M279.4,440.21l346.34,1.05h0Z" transform="translate(-278.91 -101.81)"/><rect class="cls-5" x="0.51" y="287.87" width="96.84" height="32.63"/><polygon class="cls-6" points="179.98 333.56 153.87 307.45 206.08 307.45 179.98 333.56"/><rect class="cls-7" x="64.72" y="365.77" width="233.69" height="29.47" rx="12"/><rect class="cls-5" x="249.98" y="291.13" width="96.84" height="32.63"/><path class="cls-8" d="M625.74,344.42A375.88,375.88,0,0,1,470,386.53c-90.7,4.19-159.33-25.94-190.54-42.11V102.31H625.74Z" transform="translate(-278.91 -101.81)"/><path class="cls-2" d="M280.48,140a750.37,750.37,0,0,1,342.18-.09" transform="translate(-278.91 -101.81)"/><path d="M280.88,141.47q28.39-6.65,57.26-11.09,33.86-5.2,68.1-7.29a750.34,750.34,0,0,1,76.77-.73q36.13,1.5,72,6.49,30.5,4.26,60.57,11,3.35.75,6.67,1.53c1.88.44,2.68-2.45.79-2.89q-29.59-6.92-59.7-11.44-35.13-5.26-70.64-7.22a748.82,748.82,0,0,0-77.71-.22q-34.92,1.73-69.57,6.67-29.56,4.23-58.72,10.78-3.31.74-6.63,1.52c-1.88.44-1.09,3.33.8,2.89Z" transform="translate(-278.91 -101.81)"/><path d="M620.47,141.71a1.5,1.5,0,0,0,0-3,1.5,1.5,0,0,0,0,3Z" transform="translate(-278.91 -101.81)"/><path d="M624.68,141.71a1.5,1.5,0,0,0,0-3,1.5,1.5,0,0,0,0,3Z" transform="translate(-278.91 -101.81)"/></svg>